HIERARCHY
ROOT Bone
{
	OFFSET 0.000000 0.000000 0.000000
	CHANNELS 6 Xposition Yposition Zposition Xrotation Yrotation Zrotation
	JOINT Bone.001
	{
		OFFSET 4.175154 0.041580 -0.060209
		CHANNELS 3 Xrotation Yrotation Zrotation
		JOINT Bone.002
		{
			OFFSET 4.378862 -0.087824 0.028987
			CHANNELS 3 Xrotation Yrotation Zrotation
			JOINT Bone.003
			{
				OFFSET 4.579179 0.176566 -0.018693
				CHANNELS 3 Xrotation Yrotation Zrotation
				JOINT Bone.004
				{
					OFFSET 4.294246 -0.123780 0.088225
					CHANNELS 3 Xrotation Yrotation Zrotation
					JOINT Bone.005
					{
						OFFSET 4.402290 -0.144742 0.030351
						CHANNELS 3 Xrotation Yrotation Zrotation
						JOINT Bone.006
						{
							OFFSET 4.175339 -0.003525 -0.061348
							CHANNELS 3 Xrotation Yrotation Zrotation
							JOINT Bone.007
							{
								OFFSET 4.386330 0.046515 0.030707
								CHANNELS 3 Xrotation Yrotation Zrotation
								JOINT Bone.008
								{
									OFFSET 4.571533 0.087328 -0.019273
									CHANNELS 3 Xrotation Yrotation Zrotation
									JOINT Bone.009
									{
										OFFSET 4.294243 -0.123781 0.088225
										CHANNELS 3 Xrotation Yrotation Zrotation
										End Site
										{
											OFFSET 4.296768 0.017534 0.033009
										}
									}
								}
							}
						}
					}
				}
			}
		}
	}
}
MOTION
Frames: 12
Frame Time: 0.041667
0.000000 0.000000 0.000000 -0.005928 0.021681 0.121306 -0.002758 0.014044 0.087778 -0.013835 0.025374 0.151770 -0.005046 0.021957 0.150578 -0.000176 0.001687 0.010577 -0.000517 0.020129 0.601089 0.005623 0.001802 0.373114 0.002587 0.005774 0.330694 0.000070 0.011782 0.373411 0.000778 0.006633 0.247636 
0.000000 0.000000 0.000000 -0.005928 0.021681 0.121306 -0.002758 0.014044 0.087778 -0.013835 0.025374 0.151770 -0.005046 0.021957 0.150578 -0.000176 0.001687 0.010577 -0.003654 0.080231 2.347941 0.003839 0.047704 1.702596 0.001368 0.042767 1.400434 -0.001203 0.049876 1.474845 0.000067 0.032752 1.002347 
0.000000 0.000000 0.000000 -0.005928 0.021681 0.121306 -0.002758 0.014044 0.087778 -0.013835 0.025374 0.151770 -0.005046 0.021957 0.150578 -0.000176 0.001687 0.010577 -0.012506 0.176341 5.149548 -0.001197 0.120653 3.818961 -0.001984 0.101402 3.097891 -0.004726 0.110274 3.223187 -0.001760 0.074059 2.196605 
0.000000 0.000000 0.000000 -0.005928 0.021681 0.121306 -0.002758 0.014044 0.087778 -0.013835 0.025374 0.151770 -0.005046 0.021957 0.150578 -0.000176 0.001687 0.010577 -0.031875 0.305122 8.930131 -0.012119 0.217712 6.645984 -0.009131 0.179187 5.355610 -0.012269 0.190424 5.549660 -0.005506 0.128721 3.779195 
0.000000 0.000000 0.000000 -0.005928 0.021681 0.121306 -0.002758 0.014044 0.087778 -0.013835 0.025374 0.151770 -0.005046 0.021957 0.150578 -0.000176 0.001687 0.010577 -0.067571 0.462424 13.613278 -0.031982 0.335597 10.106387 -0.021966 0.273453 8.105455 -0.025849 0.287579 8.384751 -0.012074 0.194845 5.698607 
0.000000 0.000000 0.000000 -0.005928 0.021681 0.121306 -0.002758 0.014044 0.087778 -0.013835 0.025374 0.151770 -0.005046 0.021957 0.150578 -0.000176 0.001687 0.010577 -0.125683 0.642601 19.110693 -0.063859 0.470439 14.117458 -0.042360 0.381241 11.276456 -0.047464 0.398675 11.655828 -0.022341 0.270443 7.902351 
0.000000 0.000000 0.000000 -0.005928 0.021681 0.121306 -0.002758 0.014044 0.087778 -0.013835 0.025374 0.151770 -0.005046 0.021957 0.150578 -0.000176 0.001687 0.010577 -0.211607 0.838092 25.312585 -0.110398 0.617671 18.587827 -0.071911 0.499256 14.793297 -0.078824 0.520277 15.285530 -0.037049 0.353414 10.336449 
0.000000 0.000000 0.000000 -0.005928 0.021681 0.121306 -0.002758 0.014044 0.087778 -0.013835 0.025374 0.151770 -0.005046 0.021957 0.150578 -0.000176 0.001687 0.010577 -0.328865 1.039450 32.081194 -0.173378 0.772065 23.415745 -0.111706 0.623891 18.575628 -0.121089 0.648608 19.190955 -0.056710 0.441558 12.945277 
0.000000 0.000000 0.000000 -0.005928 0.021681 0.121306 -0.002758 0.014044 0.087778 -0.013835 0.025374 0.151770 -0.005046 0.021957 0.150578 -0.000176 0.001687 0.010577 -0.477980 1.236016 39.249306 -0.253312 0.927979 28.489204 -0.162121 0.751346 22.538299 -0.174652 0.779673 23.283889 -0.081522 0.532614 15.671645 
0.000000 0.000000 0.000000 -0.005928 0.021681 0.121306 -0.002758 0.014044 0.087778 -0.013835 0.025374 0.151770 -0.005046 0.021957 0.150578 -0.000176 0.001687 0.010577 -0.655763 1.417194 46.624890 -0.349189 1.079755 33.687985 -0.222684 0.877807 26.592307 -0.238998 0.909467 27.471864 -0.111315 0.624316 18.457174 
0.000000 0.000000 0.000000 -0.005928 0.021681 0.121306 -0.002758 0.014044 0.087778 -0.013835 0.025374 0.151770 -0.005046 0.021957 0.150578 -0.000176 0.001687 0.010577 -0.855356 1.574055 54.001555 -0.458432 1.222220 38.887282 -0.292040 0.999669 30.646601 -0.312654 1.034215 31.660160 -0.145531 0.714462 21.242800 
0.000000 0.000000 0.000000 -0.005928 0.021681 0.121306 -0.002758 0.014044 0.087778 -0.013835 0.025374 0.151770 -0.005046 0.021957 0.150578 -0.000176 0.001687 0.010577 -1.067135 1.700747 61.172752 -0.577084 1.351162 43.962226 -0.368004 1.113763 34.610054 -0.393264 1.150624 35.753947 -0.183226 0.800985 23.969463 
